<?xml version="1.0" standalone="no"?>
<!DOCTYPE svg PUBLIC "-//W3C//DTD SVG 20010904//EN"
 "http://www.w3.org/TR/2001/REC-SVG-20010904/DTD/svg10.dtd">
<svg version="1.0" xmlns="http://www.w3.org/2000/svg"
 width="563.000000pt" height="576.000000pt" viewBox="0 0 563.000000 576.000000"
 preserveAspectRatio="xMidYMid meet">

<g transform="translate(0.000000,576.000000) scale(0.100000,-0.100000)"
fill="#000000" stroke="none">
<path d="M2816 5276 c-68 -37 -145 -111 -161 -153 -19 -48 -29 -51 -65 -23
-41 32 -80 26 -130 -22 -101 -93 -112 -137 -59 -238 17 -33 35 -60 39 -60 15
0 20 -30 10 -58 -9 -25 -9 -26 5 -8 19 25 19 36 -1 64 -8 12 -12 22 -8 22 3 0
1 6 -5 14 -14 17 -4 46 15 46 8 0 17 -8 21 -17 10 -29 35 -53 54 -53 11 0 24
-9 31 -20 7 -11 19 -20 26 -20 9 0 7 -8 -7 -27 -26 -32 -18 -45 9 -15 20 21
46 31 38 15 -27 -56 -32 -61 -67 -67 -21 -3 -47 -16 -58 -28 -31 -33 -73 -128
-73 -166 0 -20 -24 -81 -60 -155 -60 -122 -60 -122 -96 -337 -19 -118 -43
-247 -54 -286 -11 -39 -19 -98 -18 -130 1 -33 -4 -79 -12 -103 -11 -36 -11
-58 0 -125 7 -45 19 -93 26 -107 l13 -26 -74 -6 c-128 -11 -152 -17 -163 -41
-5 -13 -18 -60 -27 -107 -23 -111 -16 -190 25 -266 25 -48 30 -69 30 -123 -1
-36 -7 -82 -14 -102 -18 -49 -12 -53 94 -68 133 -18 150 -22 150 -30 0 -5 -26
-11 -57 -15 -151 -16 -227 -30 -246 -45 -12 -10 -23 -34 -26 -61 -5 -38 -9
-44 -31 -44 l-25 0 -3 -122 -3 -122 37 -36 c20 -20 32 -40 28 -44 -5 -4 -28
-13 -51 -20 -45 -12 -56 -33 -26 -49 25 -15 45 -96 50 -211 4 -94 3 -106 -16
-132 -26 -35 -26 -39 0 -39 21 0 22 -3 15 -77 -3 -42 -6 -89 -6 -105 0 -15 -6
-28 -12 -28 -24 -1 -233 -88 -233 -96 0 -5 4 -38 8 -74 8 -72 -7 -152 -45
-227 -12 -24 -20 -45 -17 -47 6 -5 477 -120 984 -241 83 -19 202 -49 265 -67
194 -52 304 -77 335 -78 35 0 169 73 365 200 74 47 169 107 210 131 72 43 75
46 82 89 11 75 9 193 -5 216 -6 11 -22 36 -34 55 -27 40 -29 93 -7 149 11 27
22 40 35 40 33 0 21 27 -31 66 -27 21 -50 41 -50 45 0 12 26 29 66 42 24 8 44
24 52 39 17 36 26 192 14 263 -7 40 -6 62 0 66 6 4 76 10 157 14 80 4 150 9
155 12 4 3 -5 16 -20 28 -25 20 -29 30 -32 94 -6 95 1 117 40 131 l33 11 -24
20 c-13 10 -29 19 -37 19 -7 0 -48 11 -91 24 -43 13 -106 31 -141 41 -68 20
-93 39 -66 49 11 4 13 10 6 19 -11 14 -22 114 -13 123 7 7 13 72 14 181 2 63
-2 86 -14 98 -12 12 -219 54 -272 55 -5 0 -6 4 -3 9 4 5 29 12 56 16 33 5 50
12 50 21 0 8 -5 14 -11 14 -21 0 -40 70 -33 126 6 54 52 164 81 197 15 16 14
17 -5 18 -35 2 -38 3 -56 22 -17 17 -16 19 13 46 44 41 42 77 -5 97 l-36 15
36 39 c43 48 54 98 34 154 -13 36 -24 46 -91 82 -42 22 -80 43 -83 47 -4 3 5
20 20 37 14 17 26 42 26 54 0 16 30 51 100 115 70 65 112 113 140 162 23 38
52 76 65 85 32 21 34 47 3 35 -15 -5 -30 -3 -45 6 -19 13 -25 12 -48 -3 l-26
-17 6 29 c6 27 2 25 -43 -25 l-49 -53 -22 23 c-13 13 -43 52 -68 87 -30 41
-51 61 -60 58 -8 -3 -24 1 -37 9 -22 15 -26 10 -182 -166 -87 -100 -163 -187
-168 -193 -5 -8 1 -22 19 -42 65 -69 77 -98 66 -166 -1 -9 -96 -10 -127 -2
-24 6 -48 54 -63 124 -16 72 -78 244 -138 380 -64 144 -80 235 -49 283 l17 25
51 -23 c54 -25 88 -21 88 10 0 8 6 15 12 15 7 0 29 18 49 40 26 28 44 39 60
38 23 -3 24 0 27 60 3 53 7 65 27 78 13 9 29 31 35 50 6 19 16 34 21 34 15 0
10 -39 -11 -80 -11 -22 -20 -46 -20 -54 0 -18 47 -52 58 -42 4 4 -1 12 -11 17
-23 13 -22 50 3 82 24 30 26 84 5 114 -13 19 -13 24 2 51 16 29 16 33 -2 88
-15 44 -29 64 -57 84 -20 14 -57 50 -82 81 -28 35 -63 65 -91 79 -60 29 -159
37 -199 16z m-276 -446 c0 -5 -2 -10 -4 -10 -3 0 -8 5 -11 10 -3 6 -1 10 4 10
6 0 11 -4 11 -10z m1104 -1720 c-36 -72 -50 -157 -36 -217 6 -27 8 -51 4 -54
-4 -3 -70 -21 -147 -39 -77 -18 -214 -52 -305 -76 -233 -63 -235 -63 -253 -27
-22 41 -38 139 -31 187 11 78 42 163 67 184 11 9 135 29 394 61 45 5 72 4 94
-6 54 -23 142 -11 179 23 8 8 24 14 37 14 l22 0 -25 -50z m-1384 20 c58 -5
206 -16 330 -25 124 -8 246 -17 272 -21 l48 -6 -14 -27 c-44 -84 -57 -220 -30
-310 8 -29 13 -56 10 -59 -3 -3 -43 -1 -88 5 -46 5 -239 27 -430 49 l-348 39
-10 30 c-27 75 -22 226 11 311 8 22 14 24 76 24 38 -1 115 -5 173 -10z m55
-415 c61 -8 171 -22 245 -31 74 -8 186 -22 248 -30 62 -8 141 -14 175 -14 75
0 359 -38 370 -49 5 -5 6 -46 3 -92 -8 -137 -17 -189 -30 -189 -7 0 -55 9
-107 19 -52 11 -175 31 -274 46 -257 37 -603 92 -720 114 -55 11 -121 22 -147
26 -45 6 -47 7 -38 31 6 14 10 63 10 110 l0 84 78 -6 c42 -3 127 -12 187 -19z
m1509 -11 c10 -25 7 -99 -6 -168 l-12 -64 -106 -36 c-141 -47 -296 -103 -320
-116 -25 -13 -25 -5 -4 87 10 44 14 90 10 130 l-5 62 52 15 c29 9 117 36 197
60 163 49 185 53 194 30z m-14 -317 l0 -53 -47 -13 c-27 -8 -127 -41 -223 -73
-96 -32 -227 -71 -290 -87 -63 -16 -186 -52 -273 -80 -86 -28 -163 -51 -171
-51 -17 0 -32 92 -22 143 6 33 8 34 124 70 159 50 215 61 286 53 34 -3 86 -9
117 -12 45 -5 67 -1 120 19 127 49 364 136 372 137 4 0 7 -24 7 -53z m-1605
-46 c110 -27 263 -64 340 -81 77 -18 157 -37 178 -42 l37 -9 0 -67 c0 -37 3
-77 6 -88 10 -36 -19 -35 -153 7 -128 40 -391 111 -533 144 -41 10 -87 24
-102 32 -26 12 -28 18 -28 71 0 59 11 82 39 82 9 0 106 -22 216 -49z m-182
-184 l114 -87 8 -73 c9 -86 10 -156 2 -163 -8 -8 -34 11 -143 107 -53 46 -102
96 -110 111 -20 39 -20 201 1 196 8 -2 66 -42 128 -91z m2089 -105 c-3 -56 0
-96 7 -110 10 -19 8 -21 -31 -26 -24 -3 -117 -8 -208 -11 -91 -4 -250 -12
-355 -20 -104 -8 -347 -21 -540 -29 -283 -13 -594 -28 -785 -40 -23 -1 -25 2
-22 38 2 21 -2 75 -9 119 -17 107 -17 107 161 107 130 0 142 -2 269 -40 73
-22 153 -40 178 -40 28 0 110 21 215 56 93 30 193 58 221 61 64 6 523 19 743
21 l161 2 -5 -88z m-2028 -214 c27 -21 60 -41 74 -45 14 -3 80 -1 146 6 225
21 329 14 788 -54 121 -18 177 -30 185 -41 29 -39 45 -286 23 -366 -10 -33
-14 -37 -38 -32 -139 25 -509 87 -592 99 -150 22 -646 105 -701 116 l-46 10 5
104 c3 79 1 114 -12 151 -9 26 -16 58 -16 70 0 21 5 23 53 26 67 4 73 2 131
-44z m1740 10 c12 -17 16 -49 16 -129 0 -144 -6 -167 -44 -184 -17 -8 -85 -37
-151 -65 -66 -28 -157 -73 -203 -101 -47 -29 -87 -48 -92 -43 -4 5 -11 77 -14
159 -3 83 -8 167 -12 187 -6 34 -4 38 27 54 66 34 385 143 421 144 27 0 41 -6
52 -22z m-1871 -518 c20 -57 34 -240 18 -240 -6 0 -11 8 -11 18 0 9 -9 44 -20
76 -13 38 -20 86 -20 135 0 80 7 83 33 11z m1806 -7 c-13 -34 -13 -176 0 -220
6 -21 6 -35 0 -39 -5 -3 -215 -12 -467 -20 -251 -7 -621 -19 -822 -26 -201 -6
-390 -12 -420 -12 l-55 -1 -1 142 -1 142 41 5 c23 3 262 8 531 11 422 5 502 4
575 -10 176 -33 179 -32 256 13 l69 41 152 1 153 0 -11 -27z m-1919 -169 c85
-24 110 -42 110 -76 0 -27 30 -96 43 -100 7 -2 132 0 279 5 291 11 271 13 573
-52 246 -52 279 -59 316 -65 36 -6 37 -8 54 -77 22 -88 17 -261 -7 -285 -17
-17 -20 -17 -448 94 -107 27 -285 71 -395 96 -110 26 -308 73 -440 106 -132
32 -253 62 -268 65 -23 5 -27 10 -21 23 44 100 54 149 49 226 l-7 79 39 -7
c21 -4 76 -18 123 -32z m1966 -186 c-12 -117 -8 -112 -130 -185 -61 -36 -149
-92 -196 -123 -97 -65 -231 -142 -237 -137 -2 2 2 28 8 58 13 59 7 158 -12
231 -16 60 -21 56 176 145 149 66 151 67 260 73 61 4 116 7 124 8 11 2 12 -12
7 -70z"/>
</g>
</svg>
